# xmcd CD database file
#
# Track frame offsets:
#	150
#	25487
#	33437
#	36277
#	42195
#	53389
#	71302
#	76922
#	87170
#	99642
#	102282
#	115910
#	123442
#	133730
#	180312
#	212825
#	283625
#
# Disc length: 4353 seconds
#
# Revision: 0
# Processed by: cddbd v1.5.2PL0 Copyright (c) Steve Scherf et al.
# Submitted via: CDex 1.51
#
DISCID=e110ff11
DTITLE=BBC Philharmonic - Handley  - Gough Serenade for small orchestra
DYEAR=1999
DGENRE=Orchestral
TTITLE0=Symphony No.2 in D minor -I- Andante, molto tranquillo -
TTITLE1=Symphony No.2 in D minor -II- Allegro vivace -
TTITLE2=Symphony No.2 in D minor -III- Più allegro -
TTITLE3=Symphony No.2 in D minor -IV- Maestoso più lento
TTITLE4=Symphony No.2 in D minor -V- Molto vivace, scherzando -
TTITLE5=Symphony No.2 in D minor -VI- Poco più mosso -
TTITLE6=Symphony No.2 in D minor -VII- Allegro vivace -
TTITLE7=Symphony No.2 in D minor -VIII- Adagio -
TTITLE8=Symphony No.2 in D minor -IX- Molto maestoso -
TTITLE9=Symphony No.2 in D minor -X- Più lento -
TTITLE10=Symphony No.2 in D minor -XI- Lento -
TTITLE11=Symphony No.2 in D minor -XII- Molto maestoso
TTITLE12=Serenade for small orchestra (1931)
TTITLE13=Symphony 1940 -I- Moderato con anima
TTITLE14=Symphony 1940 -II- Scherzo
TTITLE15=Symphony 1940 -III- Adagio
TTITLE16=Symphony 1940 -IV- Allegro molto
EXTD=YEAR: 1999
EXTT0=
EXTT1=
EXTT2=
EXTT3=
EXTT4=
EXTT5=
EXTT6=
EXTT7=
EXTT8=
EXTT9=
EXTT10=
EXTT11=
EXTT12=
EXTT13=
EXTT14=
EXTT15=
EXTT16=
PLAYORDER=
